<svg width="1700" height="53" viewBox="0 0 1700 53" fill="none" xmlns="http://www.w3.org/2000/svg">
<path d="M1699.5 52.8107C1699.46 52.8108 1699.42 52.8061 1699.38 52.7967L1557.8 18.0877C1464.86 -4.69592 1367.8 -4.69592 1274.87 18.0877C1228.49 29.4508 1180.91 35.1973 1133.17 35.2037C1085.42 35.1973 1037.84 29.4508 991.465 18.0877C898.531 -4.69588 801.469 -4.69588 708.535 18.0877C662.159 29.4508 614.584 35.1973 566.835 35.2037C519.087 35.1973 471.512 29.4508 425.135 18.0877C332.201 -4.69592 235.139 -4.69592 142.205 18.0877L0.613353 52.7967C0.485167 52.8268 0.350255 52.8052 0.237915 52.7365C0.125576 52.6678 0.0448801 52.5575 0.013353 52.4297C-0.0168467 52.3016 0.004638 52.1668 0.0731498 52.0545C0.141662 51.9422 0.251679 51.8614 0.379353 51.8297L141.962 17.1207C235.051 -5.70018 332.274 -5.70018 425.362 17.1207C471.662 28.4652 519.158 34.2023 566.827 34.2087C614.498 34.2009 661.995 28.4621 708.295 17.1157C801.384 -5.70523 898.607 -5.70523 991.695 17.1157C1038 28.4602 1085.49 34.1973 1133.16 34.2037C1180.83 34.1973 1228.32 28.4601 1274.62 17.1157C1367.71 -5.70519 1464.94 -5.70519 1558.02 17.1157L1699.61 51.8287C1699.73 51.8575 1699.84 51.9289 1699.91 52.0294C1699.98 52.1299 1700.01 52.2526 1699.99 52.3741C1699.98 52.4956 1699.92 52.6076 1699.83 52.6888C1699.74 52.77 1699.62 52.8148 1699.5 52.8147L1699.5 52.8107Z" fill="white"/>
</svg>
