<svg width="1700" height="53" viewBox="0 0 1700 53" fill="none" xmlns="http://www.w3.org/2000/svg">
<path d="M1699.5 52.8157C1699.46 52.8158 1699.42 52.8111 1699.38 52.8017L1557.8 18.0907C1464.86 -4.69293 1367.8 -4.69293 1274.87 18.0907C1228.49 29.4536 1180.91 35.2001 1133.17 35.2067C1085.42 35.2001 1037.84 29.4535 991.465 18.0907C898.531 -4.69289 801.469 -4.69289 708.535 18.0907C662.159 29.4536 614.584 35.2001 566.835 35.2067C519.087 35.2001 471.512 29.4536 425.135 18.0907C332.201 -4.69293 235.139 -4.69293 142.205 18.0907L0.613353 52.7987C0.485167 52.8288 0.350255 52.8072 0.237915 52.7385C0.125576 52.6698 0.0448801 52.5595 0.013353 52.4317C-0.0168467 52.3036 0.004638 52.1688 0.0731498 52.0565C0.141662 51.9442 0.251679 51.8634 0.379353 51.8317L141.959 17.1157C235.048 -5.70519 332.271 -5.70519 425.359 17.1157C471.66 28.461 519.158 34.1988 566.828 34.2057C614.499 34.1986 661.995 28.4608 708.295 17.1157C801.384 -5.70523 898.607 -5.70523 991.695 17.1157C1038 28.4596 1085.49 34.1965 1133.16 34.2027C1180.83 34.1966 1228.33 28.4597 1274.63 17.1157C1367.71 -5.70519 1464.94 -5.70519 1558.03 17.1157L1699.61 51.8237C1699.73 51.8525 1699.83 51.9238 1699.9 52.0244C1699.97 52.1249 1700 52.2476 1699.99 52.3691C1699.97 52.4906 1699.92 52.6026 1699.82 52.6838C1699.73 52.765 1699.61 52.8098 1699.49 52.8097L1699.5 52.8157Z" fill="white"/>
</svg>
